<?xml version="1.0" encoding="utf-8"?>
<!-- Generator: Adobe Illustrator 16.0.0, SVG Export Plug-In . SVG Version: 6.00 Build 0)  -->
<!DOCTYPE svg PUBLIC "-//W3C//DTD SVG 1.0//EN" "http://www.w3.org/TR/2001/REC-SVG-20010904/DTD/svg10.dtd">
<svg version="1.0" id="Layer_1" xmlns="http://www.w3.org/2000/svg" xmlns:xlink="http://www.w3.org/1999/xlink" x="0px" y="0px"
	 width="100px" height="100px" viewBox="0 0 100 100" enable-background="new 0 0 100 100" xml:space="preserve">
<path fill="#7CB342" d="M30,76.664c0,4.371,0.555,8.848,1.582,13.336h6.836c-1.104-4.271-1.751-8.725-1.751-13.336v-0.462
	c26.298-3.287,46.662-25.681,46.665-52.866c-15.992,0-30.305,7.075-40.077,18.226C42.839,30.094,38.457,18.752,30,10l0.003,0.005
	C12.226,28.411,12.222,58.259,30,76.664z"/>
<path fill="#DCEDC8" d="M37.227,69.438c19.952-3.119,35.76-18.925,38.877-38.875C56.147,33.677,40.342,49.484,37.227,69.438z"/>
<path fill="#DCEDC8" d="M30.004,20.653C21.11,34.307,21.106,52.363,30,66.013C38.895,52.359,38.895,34.303,30.004,20.653z"/>
</svg>
